<svg width="13" height="14" viewBox="0 0 13 14" fill="none" xmlns="http://www.w3.org/2000/svg">
<path d="M6.5 13.9156C2.91586 13.9156 0 10.9888 0 7.39121C0 3.79362 2.91586 0.866821 6.5 0.866821C10.0841 0.866821 13 3.79362 13 7.39121C13 10.9888 10.0841 13.9156 6.5 13.9156ZM6.5 1.79885C3.42793 1.79885 0.928543 4.30762 0.928543 7.39121C0.928543 10.4748 3.42793 12.9836 6.5 12.9836C9.57207 12.9836 12.0715 10.4748 12.0715 7.39121C12.0715 4.30762 9.57207 1.79885 6.5 1.79885Z" fill="#23C967"/>
<path d="M8.82153 10.1874C8.70271 10.1874 8.58389 10.1419 8.49324 10.0508L3.85042 5.39057C3.66902 5.20848 3.66902 4.9136 3.85042 4.73162C4.03173 4.54963 4.32561 4.54953 4.50691 4.73162L9.14973 9.39186C9.33113 9.57394 9.33113 9.86882 9.14973 10.0508C9.05907 10.1419 8.94035 10.1874 8.82153 10.1874Z" fill="#23C967"/>
<path d="M4.17862 10.1874C4.0598 10.1874 3.94108 10.1419 3.85042 10.0508C3.66902 9.86886 3.66902 9.57388 3.85042 9.39189L8.49324 4.73166C8.67464 4.54957 8.96842 4.54957 9.14973 4.73166C9.33103 4.91364 9.33113 5.20862 9.14973 5.39061L4.50691 10.0508C4.41626 10.1419 4.29744 10.1874 4.17862 10.1874Z" fill="#23C967"/>
</svg>
