<svg width="9" height="12" viewBox="0 0 9 12" fill="none" xmlns="http://www.w3.org/2000/svg">
<path d="M8.78094 6.26251C8.63507 6.0875 8.45806 6.00005 8.24963 6.00005H7.99978V4.19995C7.99978 3.04997 7.65612 2.06256 6.96859 1.23756C6.28111 0.412518 5.45835 0 4.4999 0C3.54147 0 2.71855 0.412518 2.03112 1.23752C1.34359 2.06256 0.999938 3.04994 0.999938 4.19995V6.00005H0.749974C0.541712 6.00005 0.364589 6.0875 0.218742 6.26251C0.0728959 6.4374 0 6.64994 0 6.90009V12.3C0 12.5499 0.0729232 12.7626 0.218742 12.9376C0.364589 13.1125 0.541712 13.2 0.749974 13.2H8.24982C8.45825 13.2 8.63523 13.1126 8.78114 12.9376C8.92685 12.7626 8.99988 12.5499 8.99988 12.3V6.89999C8.99999 6.65004 8.92685 6.43753 8.78094 6.26251ZM6.49986 6.00005H2.49994V4.19995C2.49994 3.53749 2.69529 2.97182 3.0859 2.50315C3.47656 2.03442 3.94787 1.8001 4.49998 1.8001C5.05214 1.8001 5.52334 2.03439 5.91403 2.50315C6.30454 2.97179 6.49986 3.53749 6.49986 4.19995V6.00005Z" fill="#AFB4CC"/>
</svg>
